<svg version="1.1" viewBox="0.0 0.0 600.0 371.0" fill="none" stroke="none" stroke-linecap="square" stroke-miterlimit="10" width="600" height="371" xmlns:xlink="http://www.w3.org/1999/xlink" xmlns="http://www.w3.org/2000/svg"><path fill="#ffffff" d="M0 0L600.0 0L600.0 371.0L0 371.0L0 0Z" fill-rule="nonzero"/><path stroke="#333333" stroke-width="1.0" stroke-linecap="butt" d="M41.5 331.5L524.5 331.5" fill-rule="nonzero"/><path stroke="#cccccc" stroke-width="1.0" stroke-linecap="butt" d="M41.5 263.5L524.5 263.5" fill-rule="nonzero"/><path stroke="#cccccc" stroke-width="1.0" stroke-linecap="butt" d="M41.5 195.5L524.5 195.5" fill-rule="nonzero"/><path stroke="#cccccc" stroke-width="1.0" stroke-linecap="butt" d="M41.5 127.5L524.5 127.5" fill-rule="nonzero"/><path stroke="#cccccc" stroke-width="1.0" stroke-linecap="butt" d="M41.5 59.5L524.5 59.5" fill-rule="nonzero"/><clipPath id="id_0"><path d="M41.55 59.416668L524.48114 59.416668L524.48114 331.45L41.55 331.45L41.55 59.416668Z" clip-rule="nonzero"/></clipPath><path stroke="#1c4587" stroke-width="3.0" stroke-linecap="butt" clip-path="url(#id_0)" d="M101.91639 225.86026L222.64917 99.745605L343.38196 185.53133L464.11472 131.83194" fill-rule="nonzero"/><path stroke="#6d9eeb" stroke-width="3.0" stroke-linecap="butt" clip-path="url(#id_0)" d="M101.91639 324.55396L222.64917 307.29343L343.38196 308.08234L464.11472 308.08234" fill-rule="nonzero"/><path fill="#000000" fill-opacity="0.0" clip-path="url(#id_0)" d="M104.91639 225.86026C104.91639 227.51712 103.57324 228.86026 101.91639 228.86026C100.25954 228.86026 98.91639 227.51712 98.91639 225.86026C98.91639 224.20341 100.25954 222.86026 101.91639 222.86026C103.57324 222.86026 104.91639 224.20341 104.91639 225.86026Z" fill-rule="nonzero"/><path fill="#000000" fill-opacity="0.0" clip-path="url(#id_0)" d="M225.64917 99.745605C225.64917 101.402466 224.30602 102.745605 222.64917 102.745605C220.99231 102.745605 219.64917 101.402466 219.64917 99.745605C219.64917 98.08875 220.99231 96.745605 222.64917 96.745605C224.30602 96.745605 225.64917 98.08875 225.64917 99.745605Z" fill-rule="nonzero"/><path fill="#000000" fill-opacity="0.0" clip-path="url(#id_0)" d="M346.38196 185.53133C346.38196 187.18817 345.0388 188.53133 343.38196 188.53133C341.7251 188.53133 340.38196 187.18817 340.38196 185.53133C340.38196 183.87447 341.7251 182.53133 343.38196 182.53133C345.0388 182.53133 346.38196 183.87447 346.38196 185.53133Z" fill-rule="nonzero"/><path fill="#000000" fill-opacity="0.0" clip-path="url(#id_0)" d="M467.11472 131.83194C467.11472 133.4888 465.77158 134.83194 464.11472 134.83194C462.45786 134.83194 461.11472 133.4888 461.11472 131.83194C461.11472 130.17508 462.45786 128.83194 464.11472 128.83194C465.77158 128.83194 467.11472 130.17508 467.11472 131.83194Z" fill-rule="nonzero"/><path fill="#000000" fill-opacity="0.0" clip-path="url(#id_0)" d="M104.91639 324.55396C104.91639 326.21082 103.57324 327.55396 101.91639 327.55396C100.25954 327.55396 98.91639 326.21082 98.91639 324.55396C98.91639 322.8971 100.25954 321.55396 101.91639 321.55396C103.57324 321.55396 104.91639 322.8971 104.91639 324.55396Z" fill-rule="nonzero"/><path fill="#000000" fill-opacity="0.0" clip-path="url(#id_0)" d="M225.64917 307.29343C225.64917 308.9503 224.30602 310.29343 222.64917 310.29343C220.99231 310.29343 219.64917 308.9503 219.64917 307.29343C219.64917 305.6366 220.99231 304.29343 222.64917 304.29343C224.30602 304.29343 225.64917 305.6366 225.64917 307.29343Z" fill-rule="nonzero"/><path fill="#000000" fill-opacity="0.0" clip-path="url(#id_0)" d="M346.38196 308.08234C346.38196 309.7392 345.0388 311.08234 343.38196 311.08234C341.7251 311.08234 340.38196 309.7392 340.38196 308.08234C340.38196 306.42548 341.7251 305.08234 343.38196 305.08234C345.0388 305.08234 346.38196 306.42548 346.38196 308.08234Z" fill-rule="nonzero"/><path fill="#000000" fill-opacity="0.0" clip-path="url(#id_0)" d="M467.11472 308.08234C467.11472 309.7392 465.77158 311.08234 464.11472 311.08234C462.45786 311.08234 461.11472 309.7392 461.11472 308.08234C461.11472 306.42548 462.45786 305.08234 464.11472 305.08234C465.77158 305.08234 467.11472 306.42548 467.11472 308.08234Z" fill-rule="nonzero"/><path fill="#b7b7b7" d="M35.596874 331.91876Q35.596874 333.4969 35.05 334.27814Q34.51875 335.04376 33.3625 335.04376Q32.221874 335.04376 31.675 334.29376Q31.128124 333.54376 31.1125 332.04376L31.1125 330.84064Q31.1125 329.2625 31.64375 328.5125Q32.190624 327.7469 33.346874 327.7469Q34.503124 327.7469 35.034374 328.48126Q35.58125 329.21564 35.596874 330.7469L35.596874 331.91876ZM34.690624 330.6844Q34.690624 329.52814 34.3625 329.0125Q34.05 328.48126 33.346874 328.48126Q32.659374 328.48126 32.33125 329.0125Q32.01875 329.52814 32.01875 330.60626L32.01875 332.0594Q32.01875 333.21564 32.346874 333.7625Q32.690624 334.3094 33.3625 334.3094Q34.034374 334.3094 34.346874 333.79376Q34.675 333.27814 34.690624 332.16876L34.690624 330.6844Z" fill-rule="nonzero"/><path fill="#b7b7b7" d="M31.55 263.37918L31.925 259.8323L35.565624 259.8323L35.565624 260.66043L32.690624 260.66043L32.471874 262.59793Q32.9875 262.30106 33.659374 262.30106Q34.628124 262.30106 35.190624 262.94168Q35.76875 263.5823 35.76875 264.67606Q35.76875 265.7698 35.175 266.41043Q34.58125 267.03543 33.51875 267.03543Q32.58125 267.03543 31.971874 266.5198Q31.378124 265.98856 31.3 265.06668L32.159374 265.06668Q32.2375 265.67606 32.58125 265.98856Q32.940624 266.30106 33.51875 266.30106Q34.14375 266.30106 34.503124 265.87918Q34.8625 265.44168 34.8625 264.69168Q34.8625 263.97293 34.471874 263.55106Q34.096874 263.11356 33.440624 263.11356Q32.8625 263.11356 32.51875 263.36356L32.284374 263.56668L31.55 263.37918Z" fill-rule="nonzero"/><path fill="#b7b7b7" d="M28.1125 198.93333L27.20625 198.93333L27.20625 192.91771L25.378124 193.57396L25.378124 192.76146L27.971874 191.79271L28.1125 191.79271L28.1125 198.93333ZM35.596874 195.90208Q35.596874 197.48021 35.05 198.26146Q34.51875 199.02708 33.3625 199.02708Q32.221874 199.02708 31.675 198.27708Q31.128124 197.52708 31.1125 196.02708L31.1125 194.82396Q31.1125 193.24583 31.64375 192.49583Q32.190624 191.73021 33.346874 191.73021Q34.503124 191.73021 35.034374 192.46458Q35.58125 193.19896 35.596874 194.73021L35.596874 195.90208ZM34.690624 194.66771Q34.690624 193.51146 34.3625 192.99583Q34.05 192.46458 33.346874 192.46458Q32.659374 192.46458 32.33125 192.99583Q32.01875 193.51146 32.01875 194.58958L32.01875 196.04271Q32.01875 197.19896 32.346874 197.74583Q32.690624 198.29271 33.3625 198.29271Q34.034374 198.29271 34.346874 197.77708Q34.675 197.26146 34.690624 196.15208L34.690624 194.66771Z" fill-rule="nonzero"/><path fill="#b7b7b7" d="M28.1125 130.925L27.20625 130.925L27.20625 124.90938L25.378124 125.56563L25.378124 124.75313L27.971874 123.78438L28.1125 123.78438L28.1125 130.925ZM31.55 127.3625L31.925 123.81563L35.565624 123.81563L35.565624 124.64375L32.690624 124.64375L32.471874 126.58125Q32.9875 126.28438 33.659374 126.28438Q34.628124 126.28438 35.190624 126.925Q35.76875 127.56563 35.76875 128.65938Q35.76875 129.75313 35.175 130.39375Q34.58125 131.01875 33.51875 131.01875Q32.58125 131.01875 31.971874 130.50313Q31.378124 129.97188 31.3 129.05L32.159374 129.05Q32.2375 129.65938 32.58125 129.97188Q32.940624 130.28438 33.51875 130.28438Q34.14375 130.28438 34.503124 129.8625Q34.8625 129.425 34.8625 128.675Q34.8625 127.95625 34.471874 127.53438Q34.096874 127.09688 33.440624 127.09688Q32.8625 127.09688 32.51875 127.34688L32.284374 127.55L31.55 127.3625Z" fill-rule="nonzero"/><path fill="#b7b7b7" d="M29.8 62.916668L25.14375 62.916668L25.14375 62.260418L27.596874 59.526043Q28.14375 58.916668 28.346874 58.526043Q28.565624 58.135418 28.565624 57.713543Q28.565624 57.166668 28.221874 56.807293Q27.89375 56.447918 27.33125 56.447918Q26.659374 56.447918 26.284374 56.838543Q25.909374 57.213543 25.909374 57.901043L25.003124 57.901043Q25.003124 56.916668 25.628124 56.322918Q26.26875 55.713543 27.33125 55.713543Q28.315624 55.713543 28.89375 56.229168Q29.471874 56.744793 29.471874 57.619793Q29.471874 58.666668 28.128124 60.119793L26.2375 62.182293L29.8 62.182293L29.8 62.916668ZM35.596874 59.885418Q35.596874 61.463543 35.05 62.244793Q34.51875 63.010418 33.3625 63.010418Q32.221874 63.010418 31.675 62.260418Q31.128124 61.510418 31.1125 60.010418L31.1125 58.807293Q31.1125 57.229168 31.64375 56.479168Q32.190624 55.713543 33.346874 55.713543Q34.503124 55.713543 35.034374 56.447918Q35.58125 57.182293 35.596874 58.713543L35.596874 59.885418ZM34.690624 58.651043Q34.690624 57.494793 34.3625 56.979168Q34.05 56.447918 33.346874 56.447918Q32.659374 56.447918 32.33125 56.979168Q32.01875 57.494793 32.01875 58.572918L32.01875 60.026043Q32.01875 61.182293 32.346874 61.729168Q32.690624 62.276043 33.3625 62.276043Q34.034374 62.276043 34.346874 61.760418Q34.675 61.244793 34.690624 60.135418L34.690624 58.651043Z" fill-rule="nonzero"/><path fill="#000000" d="M60.275764 349.45L60.275764 343.95L59.275764 343.95L59.275764 343.10626L60.275764 343.10626L60.275764 342.46564Q60.275764 341.4344 60.807014 340.8875Q61.35389 340.325 62.35389 340.325Q62.72889 340.325 63.10389 340.41876L63.04139 341.3094Q62.76014 341.2469 62.463264 341.2469Q61.932014 341.2469 61.63514 341.5594Q61.35389 341.8719 61.35389 342.4344L61.35389 343.10626L62.713264 343.10626L62.713264 343.95L61.35389 343.95L61.35389 349.45L60.275764 349.45ZM67.650764 348.825Q67.025764 349.575 65.79139 349.575Q64.775764 349.575 64.244514 348.98126Q63.713264 348.3875 63.713264 347.23126L63.713264 343.10626L64.79139 343.10626L64.79139 347.2Q64.79139 348.65314 65.963264 348.65314Q67.213264 348.65314 67.619514 347.71564L67.619514 343.10626L68.713264 343.10626L68.713264 349.45L67.682014 349.45L67.650764 348.825ZM71.76014 343.10626L71.79139 343.90314Q72.525764 342.9969 73.69764 342.9969Q75.713264 342.9969 75.72889 345.2625L75.72889 349.45L74.63514 349.45L74.63514 345.2469Q74.63514 344.575 74.32264 344.2469Q74.025764 343.91876 73.369514 343.91876Q72.838264 343.91876 72.432014 344.2Q72.04139 344.48126 71.82264 344.9344L71.82264 349.45L70.744514 349.45L70.744514 343.10626L71.76014 343.10626ZM80.275764 348.6844Q80.85389 348.6844 81.29139 348.34064Q81.72889 347.98126 81.775764 347.45L82.807014 347.45Q82.775764 347.9969 82.41639 348.4969Q82.07264 348.98126 81.494514 349.27814Q80.932014 349.575 80.275764 349.575Q78.97889 349.575 78.213264 348.71564Q77.463264 347.84064 77.463264 346.34064L77.463264 346.15314Q77.463264 345.23126 77.79139 344.5125Q78.13514 343.79376 78.76014 343.40314Q79.400764 342.9969 80.275764 342.9969Q81.338264 342.9969 82.04139 343.6375Q82.76014 344.2625 82.807014 345.29376L81.775764 345.29376Q81.72889 344.66876 81.307014 344.27814Q80.88514 343.8875 80.275764 343.8875Q79.44764 343.8875 78.994514 344.48126Q78.54139 345.075 78.54139 346.2L78.54139 346.40314Q78.54139 347.4969 78.994514 348.09064Q79.44764 348.6844 80.275764 348.6844ZM85.213264 341.575L85.213264 343.10626L86.38514 343.10626L86.38514 343.95L85.213264 343.95L85.213264 347.8719Q85.213264 348.2625 85.369514 348.45Q85.525764 348.6375 85.900764 348.6375Q86.088264 348.6375 86.41639 348.575L86.41639 349.45Q85.994514 349.575 85.588264 349.575Q84.869514 349.575 84.494514 349.1375Q84.119514 348.6844 84.119514 347.8719L84.119514 343.95L82.963264 343.95L82.963264 343.10626L84.119514 343.10626L84.119514 341.575L85.213264 341.575ZM88.91639 349.45L87.838264 349.45L87.838264 343.10626L88.91639 343.10626L88.91639 349.45ZM87.744514 341.4344Q87.744514 341.16876 87.900764 340.98126Q88.07264 340.79376 88.38514 340.79376Q88.69764 340.79376 88.85389 340.98126Q89.025764 341.16876 89.025764 341.4344Q89.025764 341.6844 88.85389 341.8719Q88.69764 342.04376 88.38514 342.04376Q88.07264 342.04376 87.900764 341.8719Q87.744514 341.6844 87.744514 341.4344ZM90.44764 346.21564Q90.44764 345.29376 90.807014 344.54376Q91.182014 343.79376 91.838264 343.40314Q92.494514 342.9969 93.32264 342.9969Q94.619514 342.9969 95.41639 343.8875Q96.22889 344.77814 96.22889 346.27814L96.22889 346.35626Q96.22889 347.27814 95.869514 348.0125Q95.51014 348.7469 94.85389 349.16876Q94.19764 349.575 93.338264 349.575Q92.057014 349.575 91.244514 348.6844Q90.44764 347.77814 90.44764 346.29376L90.44764 346.21564ZM91.54139 346.35626Q91.54139 347.40314 92.025764 348.04376Q92.525764 348.6844 93.338264 348.6844Q94.16639 348.6844 94.650764 348.04376Q95.13514 347.3875 95.13514 346.21564Q95.13514 345.1844 94.63514 344.54376Q94.150764 343.8875 93.32264 343.8875Q92.525764 343.8875 92.025764 344.52814Q91.54139 345.15314 91.54139 346.35626ZM98.76014 343.10626L98.79139 343.90314Q99.525764 342.9969 100.69764 342.9969Q102.713264 342.9969 102.72889 345.2625L102.72889 349.45L101.63514 349.45L101.63514 345.2469Q101.63514 344.575 101.32264 344.2469Q101.025764 343.91876 100.369514 343.91876Q99.838264 343.91876 99.432014 344.2Q99.04139 344.48126 98.82264 344.9344L98.82264 349.45L97.744514 349.45L97.744514 343.10626L98.76014 343.10626ZM113.088264 346.35626Q113.088264 347.79376 112.432014 348.6844Q111.775764 349.575 110.63514 349.575Q109.47889 349.575 108.82264 348.84064L108.82264 351.8875L107.744514 351.8875L107.744514 343.10626L108.72889 343.10626L108.775764 343.8094Q109.44764 342.9969 110.619514 342.9969Q111.76014 342.9969 112.41639 343.85626Q113.088264 344.71564 113.088264 346.2469L113.088264 346.35626ZM112.01014 346.23126Q112.01014 345.15314 111.54139 344.54376Q111.088264 343.91876 110.29139 343.91876Q109.307014 343.91876 108.82264 344.77814L108.82264 347.8094Q109.307014 348.6844 110.307014 348.6844Q111.088264 348.6844 111.54139 348.075Q112.01014 347.45 112.01014 346.23126ZM114.44764 346.21564Q114.44764 345.29376 114.807014 344.54376Q115.182014 343.79376 115.838264 343.40314Q116.494514 342.9969 117.32264 342.9969Q118.619514 342.9969 119.41639 343.8875Q120.22889 344.77814 120.22889 346.27814L120.22889 346.35626Q120.22889 347.27814 119.869514 348.0125Q119.51014 348.7469 118.85389 349.16876Q118.19764 349.575 117.338264 349.575Q116.057014 349.575 115.244514 348.6844Q114.44764 347.77814 114.44764 346.29376L114.44764 346.21564ZM115.54139 346.35626Q115.54139 347.40314 116.025764 348.04376Q116.525764 348.6844 117.338264 348.6844Q118.16639 348.6844 118.650764 348.04376Q119.13514 347.3875 119.13514 346.21564Q119.13514 345.1844 118.63514 344.54376Q118.150764 343.8875 117.32264 343.8875Q116.525764 343.8875 116.025764 344.52814Q115.54139 345.15314 115.54139 346.35626ZM122.91639 349.45L121.838264 349.45L121.838264 343.10626L122.91639 343.10626L122.91639 349.45ZM121.744514 341.4344Q121.744514 341.16876 121.900764 340.98126Q122.07264 340.79376 122.38514 340.79376Q122.69764 340.79376 122.85389 340.98126Q123.025764 341.16876 123.025764 341.4344Q123.025764 341.6844 122.85389 341.8719Q122.69764 342.04376 122.38514 342.04376Q122.07264 342.04376 121.900764 341.8719Q121.744514 341.6844 121.744514 341.4344ZM125.76014 343.10626L125.79139 343.90314Q126.525764 342.9969 127.69764 342.9969Q129.71326 342.9969 129.72888 345.2625L129.72888 349.45L128.63513 349.45L128.63513 345.2469Q128.63513 344.575 128.32263 344.2469Q128.02576 343.91876 127.369514 343.91876Q126.838264 343.91876 126.432014 344.2Q126.04139 344.48126 125.82264 344.9344L125.82264 349.45L124.744514 349.45L124.744514 343.10626L125.76014 343.10626ZM133.21326 341.575L133.21326 343.10626L134.38513 343.10626L134.38513 343.95L133.21326 343.95L133.21326 347.8719Q133.21326 348.2625 133.3695 348.45Q133.52576 348.6375 133.90076 348.6375Q134.08826 348.6375 134.41638 348.575L134.41638 349.45Q133.9945 349.575 133.58826 349.575Q132.8695 349.575 132.4945 349.1375Q132.1195 348.6844 132.1195 347.8719L132.1195 343.95L130.96326 343.95L130.96326 343.10626L132.1195 343.10626L132.1195 341.575L133.21326 341.575ZM138.3695 349.575Q137.07263 349.575 136.26013 348.73126Q135.46326 347.8719 135.46326 346.45L135.46326 346.2625Q135.46326 345.3094 135.82263 344.575Q136.182 343.825 136.82263 343.41876Q137.47888 342.9969 138.22888 342.9969Q139.46326 342.9969 140.15076 343.8094Q140.83826 344.6219 140.83826 346.1375L140.83826 346.59064L136.54138 346.59064Q136.57263 347.52814 137.08826 348.10626Q137.6195 348.6844 138.432 348.6844Q138.9945 348.6844 139.38513 348.45Q139.79138 348.21564 140.10388 347.825L140.76013 348.34064Q139.96326 349.575 138.3695 349.575ZM138.22888 343.8875Q137.57263 343.8875 137.1195 344.3719Q136.682 344.84064 136.58826 345.7L139.76013 345.7L139.76013 345.6219Q139.71326 344.79376 139.307 344.34064Q138.91638 343.8875 138.22888 343.8875ZM144.807 344.075Q144.557 344.04376 144.27576 344.04376Q143.19763 344.04376 142.82263 344.95L142.82263 349.45L141.7445 349.45L141.7445 343.10626L142.79138 343.10626L142.807 343.84064Q143.33826 342.9969 144.32263 342.9969Q144.63513 342.9969 144.807 343.075L144.807 344.075Z" fill-rule="nonzero"/><path fill="#000000" d="M184.55542 347.98126L186.13354 343.10626L187.24292 343.10626L184.96167 349.45L184.13354 349.45L181.83667 343.10626L182.94604 343.10626L184.55542 347.98126ZM189.64917 349.45L188.57104 349.45L188.57104 343.10626L189.64917 343.10626L189.64917 349.45ZM188.4773 341.4344Q188.4773 341.16876 188.63354 340.98126Q188.80542 340.79376 189.11792 340.79376Q189.43042 340.79376 189.58667 340.98126Q189.75854 341.16876 189.75854 341.4344Q189.75854 341.6844 189.58667 341.8719Q189.43042 342.04376 189.11792 342.04376Q188.80542 342.04376 188.63354 341.8719Q188.4773 341.6844 188.4773 341.4344ZM194.5398 344.075Q194.2898 344.04376 194.00854 344.04376Q192.93042 344.04376 192.55542 344.95L192.55542 349.45L191.4773 349.45L191.4773 343.10626L192.52417 343.10626L192.5398 343.84064Q193.07104 342.9969 194.05542 342.9969Q194.36792 342.9969 194.5398 343.075L194.5398 344.075ZM196.94604 341.575L196.94604 343.10626L198.11792 343.10626L198.11792 343.95L196.94604 343.95L196.94604 347.8719Q196.94604 348.2625 197.1023 348.45Q197.25854 348.6375 197.63354 348.6375Q197.82104 348.6375 198.14917 348.575L198.14917 349.45Q197.7273 349.575 197.32104 349.575Q196.6023 349.575 196.2273 349.1375Q195.8523 348.6844 195.8523 347.8719L195.8523 343.95L194.69604 343.95L194.69604 343.10626L195.8523 343.10626L195.8523 341.575L196.94604 341.575ZM203.38354 348.825Q202.75854 349.575 201.52417 349.575Q200.50854 349.575 199.9773 348.98126Q199.44604 348.3875 199.44604 347.23126L199.44604 343.10626L200.52417 343.10626L200.52417 347.2Q200.52417 348.65314 201.69604 348.65314Q202.94604 348.65314 203.3523 347.71564L203.3523 343.10626L204.44604 343.10626L204.44604 349.45L203.4148 349.45L203.38354 348.825ZM210.38354 349.45Q210.2898 349.2625 210.2273 348.77814Q209.4773 349.575 208.43042 349.575Q207.49292 349.575 206.88354 349.04376Q206.2898 348.5125 206.2898 347.6844Q206.2898 346.7 207.0398 346.15314Q207.7898 345.60626 209.1648 345.60626L210.21167 345.60626L210.21167 345.10626Q210.21167 344.54376 209.86792 344.21564Q209.5398 343.8719 208.86792 343.8719Q208.2898 343.8719 207.89917 344.16876Q207.50854 344.45 207.50854 344.8719L206.4148 344.8719Q206.4148 344.3875 206.74292 343.95Q207.08667 343.5125 207.6648 343.2625Q208.24292 342.9969 208.93042 342.9969Q210.0398 342.9969 210.64917 343.54376Q211.27417 344.09064 211.30542 345.04376L211.30542 347.96564Q211.30542 348.84064 211.52417 349.35626L211.52417 349.45L210.38354 349.45ZM208.58667 348.6219Q209.1023 348.6219 209.55542 348.35626Q210.00854 348.09064 210.21167 347.66876L210.21167 346.3719L209.36792 346.3719Q207.36792 346.3719 207.36792 347.54376Q207.36792 348.04376 207.71167 348.34064Q208.05542 348.6219 208.58667 348.6219ZM214.64917 349.45L213.57104 349.45L213.57104 340.45L214.64917 340.45L214.64917 349.45ZM220.00854 349.45L220.00854 343.95L219.00854 343.95L219.00854 343.10626L220.00854 343.10626L220.00854 342.46564Q220.00854 341.4344 220.5398 340.8875Q221.08667 340.325 222.08667 340.325Q222.46167 340.325 222.83667 340.41876L222.77417 341.3094Q222.49292 341.2469 222.19604 341.2469Q221.6648 341.2469 221.36792 341.5594Q221.08667 341.8719 221.08667 342.4344L221.08667 343.10626L222.44604 343.10626L222.44604 343.95L221.08667 343.95L221.08667 349.45L220.00854 349.45ZM227.38354 348.825Q226.75854 349.575 225.52417 349.575Q224.50854 349.575 223.9773 348.98126Q223.44604 348.3875 223.44604 347.23126L223.44604 343.10626L224.52417 343.10626L224.52417 347.2Q224.52417 348.65314 225.69604 348.65314Q226.94604 348.65314 227.3523 347.71564L227.3523 343.10626L228.44604 343.10626L228.44604 349.45L227.4148 349.45L227.38354 348.825ZM231.49292 343.10626L231.52417 343.90314Q232.25854 342.9969 233.43042 342.9969Q235.44604 342.9969 235.46167 345.2625L235.46167 349.45L234.36792 349.45L234.36792 345.2469Q234.36792 344.575 234.05542 344.2469Q233.75854 343.91876 233.1023 343.91876Q232.57104 343.91876 232.1648 344.2Q231.77417 344.48126 231.55542 344.9344L231.55542 349.45L230.4773 349.45L230.4773 343.10626L231.49292 343.10626ZM240.00854 348.6844Q240.58667 348.6844 241.02417 348.34064Q241.46167 347.98126 241.50854 347.45L242.5398 347.45Q242.50854 347.9969 242.14917 348.4969Q241.80542 348.98126 241.2273 349.27814Q240.6648 349.575 240.00854 349.575Q238.71167 349.575 237.94604 348.71564Q237.19604 347.84064 237.19604 346.34064L237.19604 346.15314Q237.19604 345.23126 237.52417 344.5125Q237.86792 343.79376 238.49292 343.40314Q239.13354 342.9969 240.00854 342.9969Q241.07104 342.9969 241.77417 343.6375Q242.49292 344.2625 242.5398 345.29376L241.50854 345.29376Q241.46167 344.66876 241.0398 344.27814Q240.61792 343.8875 240.00854 343.8875Q239.18042 343.8875 238.7273 344.48126Q238.27417 345.075 238.27417 346.2L238.27417 346.40314Q238.27417 347.4969 238.7273 348.09064Q239.18042 348.6844 240.00854 348.6844ZM244.94604 341.575L244.94604 343.10626L246.11792 343.10626L246.11792 343.95L244.94604 343.95L244.94604 347.8719Q244.94604 348.2625 245.1023 348.45Q245.25854 348.6375 245.63354 348.6375Q245.82104 348.6375 246.14917 348.575L246.14917 349.45Q245.7273 349.575 245.32104 349.575Q244.6023 349.575 244.2273 349.1375Q243.8523 348.6844 243.8523 347.8719L243.8523 343.95L242.69604 343.95L242.69604 343.10626L243.8523 343.10626L243.8523 341.575L244.94604 341.575ZM248.64917 349.45L247.57104 349.45L247.57104 343.10626L248.64917 343.10626L248.64917 349.45ZM247.4773 341.4344Q247.4773 341.16876 247.63354 340.98126Q247.80542 340.79376 248.11792 340.79376Q248.43042 340.79376 248.58667 340.98126Q248.75854 341.16876 248.75854 341.4344Q248.75854 341.6844 248.58667 341.8719Q248.43042 342.04376 248.11792 342.04376Q247.80542 342.04376 247.63354 341.8719Q247.4773 341.6844 247.4773 341.4344ZM250.18042 346.21564Q250.18042 345.29376 250.5398 344.54376Q250.9148 343.79376 251.57104 343.40314Q252.2273 342.9969 253.05542 342.9969Q254.3523 342.9969 255.14917 343.8875Q255.96167 344.77814 255.96167 346.27814L255.96167 346.35626Q255.96167 347.27814 255.6023 348.0125Q255.24292 348.7469 254.58667 349.16876Q253.93042 349.575 253.07104 349.575Q251.7898 349.575 250.9773 348.6844Q250.18042 347.77814 250.18042 346.29376L250.18042 346.21564ZM251.27417 346.35626Q251.27417 347.40314 251.75854 348.04376Q252.25854 348.6844 253.07104 348.6844Q253.89917 348.6844 254.38354 348.04376Q254.86792 347.3875 254.86792 346.21564Q254.86792 345.1844 254.36792 344.54376Q253.88354 343.8875 253.05542 343.8875Q252.25854 343.8875 251.75854 344.52814Q251.27417 345.15314 251.27417 346.35626ZM258.49292 343.10626L258.52417 343.90314Q259.25854 342.9969 260.43042 342.9969Q262.44604 342.9969 262.46167 345.2625L262.46167 349.45L261.36792 349.45L261.36792 345.2469Q261.36792 344.575 261.05542 344.2469Q260.75854 343.91876 260.1023 343.91876Q259.57104 343.91876 259.1648 344.2Q258.77417 344.48126 258.55542 344.9344L258.55542 349.45L257.4773 349.45L257.4773 343.10626L258.49292 343.10626Z" fill-rule="nonzero"/><path fill="#000000" d="M283.06946 346.35626Q283.06946 347.8094 282.39758 348.7Q281.74133 349.575 280.61633 349.575Q279.4132 349.575 278.75696 348.71564L278.69446 349.45L277.71008 349.45L277.71008 340.45L278.7882 340.45L278.7882 343.8094Q279.44446 342.9969 280.6007 342.9969Q281.75696 342.9969 282.4132 343.8719Q283.06946 344.73126 283.06946 346.2625L283.06946 346.35626ZM281.99133 346.23126Q281.99133 345.1219 281.55383 344.52814Q281.13196 343.91876 280.33508 343.91876Q279.25696 343.91876 278.7882 344.90314L278.7882 347.65314Q279.2882 348.65314 280.33508 348.65314Q281.11633 348.65314 281.55383 348.04376Q281.99133 347.4344 281.99133 346.23126ZM287.33508 349.575Q286.0382 349.575 285.2257 348.73126Q284.42883 347.8719 284.42883 346.45L284.42883 346.2625Q284.42883 345.3094 284.7882 344.575Q285.14758 343.825 285.7882 343.41876Q286.44446 342.9969 287.19446 342.9969Q288.42883 342.9969 289.11633 343.8094Q289.80383 344.6219 289.80383 346.1375L289.80383 346.59064L285.50696 346.59064Q285.5382 347.52814 286.05383 348.10626Q286.58508 348.6844 287.39758 348.6844Q287.96008 348.6844 288.3507 348.45Q288.75696 348.21564 289.06946 347.825L289.7257 348.34064Q288.92883 349.575 287.33508 349.575ZM287.19446 343.8875Q286.5382 343.8875 286.08508 344.3719Q285.64758 344.84064 285.55383 345.7L288.7257 345.7L288.7257 345.6219Q288.67883 344.79376 288.27258 344.34064Q287.88196 343.8875 287.19446 343.8875ZM292.77258 347.85626L294.25696 343.10626L295.4132 343.10626L292.86633 350.4344Q292.27258 352.0125 290.99133 352.0125L290.77258 351.9969L290.38196 351.91876L290.38196 351.04376L290.6632 351.0594Q291.2257 351.0594 291.52258 350.84064Q291.83508 350.6219 292.0382 350.02814L292.27258 349.3719L290.00696 343.10626L291.19446 343.10626L292.77258 347.85626ZM296.4132 346.21564Q296.4132 345.29376 296.77258 344.54376Q297.14758 343.79376 297.80383 343.40314Q298.46008 342.9969 299.2882 342.9969Q300.58508 342.9969 301.38196 343.8875Q302.19446 344.77814 302.19446 346.27814L302.19446 346.35626Q302.19446 347.27814 301.83508 348.0125Q301.4757 348.7469 300.81946 349.16876Q300.1632 349.575 299.30383 349.575Q298.02258 349.575 297.21008 348.6844Q296.4132 347.77814 296.4132 346.29376L296.4132 346.21564ZM297.50696 346.35626Q297.50696 347.40314 297.99133 348.04376Q298.49133 348.6844 299.30383 348.6844Q300.13196 348.6844 300.61633 348.04376Q301.1007 347.3875 301.1007 346.21564Q301.1007 345.1844 300.6007 344.54376Q300.11633 343.8875 299.2882 343.8875Q298.49133 343.8875 297.99133 344.52814Q297.50696 345.15314 297.50696 346.35626ZM304.7257 343.10626L304.75696 343.90314Q305.49133 342.9969 306.6632 342.9969Q308.67883 342.9969 308.69446 345.2625L308.69446 349.45L307.6007 349.45L307.6007 345.2469Q307.6007 344.575 307.2882 344.2469Q306.99133 343.91876 306.33508 343.91876Q305.80383 343.91876 305.39758 344.2Q305.00696 344.48126 304.7882 344.9344L304.7882 349.45L303.71008 349.45L303.71008 343.10626L304.7257 343.10626ZM310.44446 346.23126Q310.44446 344.7625 311.13196 343.8875Q311.81946 342.9969 312.94446 342.9969Q314.05383 342.9969 314.71008 343.7469L314.71008 340.45L315.7882 340.45L315.7882 349.45L314.7882 349.45L314.74133 348.7625Q314.08508 349.575 312.92883 349.575Q311.83508 349.575 311.13196 348.66876Q310.44446 347.7625 310.44446 346.3094L310.44446 346.23126ZM311.52258 346.35626Q311.52258 347.4344 311.96008 348.04376Q312.4132 348.65314 313.19446 348.65314Q314.2257 348.65314 314.71008 347.71564L314.71008 344.8094Q314.2257 343.91876 313.21008 343.91876Q312.4132 343.91876 311.96008 344.52814Q311.52258 345.1375 311.52258 346.35626ZM317.7257 348.8875Q317.7257 348.60626 317.88196 348.41876Q318.05383 348.23126 318.38196 348.23126Q318.7257 348.23126 318.89758 348.41876Q319.06946 348.60626 319.06946 348.8875Q319.06946 349.15314 318.89758 349.34064Q318.7257 349.5125 318.38196 349.5125Q318.05383 349.5125 317.88196 349.34064Q317.7257 349.15314 317.7257 348.8875ZM317.7257 343.8875Q317.7257 343.60626 317.88196 343.41876Q318.05383 343.23126 318.38196 343.23126Q318.7257 343.23126 318.89758 343.41876Q319.06946 343.60626 319.06946 343.8875Q319.06946 344.15314 318.89758 344.34064Q318.7257 344.5125 318.38196 344.5125Q318.05383 344.5125 317.88196 344.34064Q317.7257 344.15314 317.7257 343.8875ZM320.7257 348.8875Q320.7257 348.60626 320.88196 348.41876Q321.05383 348.23126 321.38196 348.23126Q321.7257 348.23126 321.89758 348.41876Q322.06946 348.60626 322.06946 348.8875Q322.06946 349.15314 321.89758 349.34064Q321.7257 349.5125 321.38196 349.5125Q321.05383 349.5125 320.88196 349.34064Q320.7257 349.15314 320.7257 348.8875ZM320.7257 343.8875Q320.7257 343.60626 320.88196 343.41876Q321.05383 343.23126 321.38196 343.23126Q321.7257 343.23126 321.89758 343.41876Q322.06946 343.60626 322.06946 343.8875Q322.06946 344.15314 321.89758 344.34064Q321.7257 344.5125 321.38196 344.5125Q321.05383 344.5125 320.88196 344.34064Q320.7257 344.15314 320.7257 343.8875ZM327.61633 348.825Q326.99133 349.575 325.75696 349.575Q324.74133 349.575 324.21008 348.98126Q323.67883 348.3875 323.67883 347.23126L323.67883 343.10626L324.75696 343.10626L324.75696 347.2Q324.75696 348.65314 325.92883 348.65314Q327.17883 348.65314 327.58508 347.71564L327.58508 343.10626L328.67883 343.10626L328.67883 349.45L327.64758 349.45L327.61633 348.825ZM331.7257 343.10626L331.75696 343.90314Q332.49133 342.9969 333.6632 342.9969Q335.67883 342.9969 335.69446 345.2625L335.69446 349.45L334.6007 349.45L334.6007 345.2469Q334.6007 344.575 334.2882 344.2469Q333.99133 343.91876 333.33508 343.91876Q332.80383 343.91876 332.39758 344.2Q332.00696 344.48126 331.7882 344.9344L331.7882 349.45L330.71008 349.45L330.71008 343.10626L331.7257 343.10626ZM338.88196 349.45L337.80383 349.45L337.80383 343.10626L338.88196 343.10626L338.88196 349.45ZM337.71008 341.4344Q337.71008 341.16876 337.86633 340.98126Q338.0382 340.79376 338.3507 340.79376Q338.6632 340.79376 338.81946 340.98126Q338.99133 341.16876 338.99133 341.4344Q338.99133 341.6844 338.81946 341.8719Q338.6632 342.04376 338.3507 342.04376Q338.0382 342.04376 337.86633 341.8719Q337.71008 341.6844 337.71008 341.4344ZM340.44446 346.23126Q340.44446 344.73126 341.11633 343.8719Q341.80383 342.9969 342.96008 342.9969Q344.08508 342.9969 344.74133 343.7469L344.7882 343.10626L345.7882 343.10626L345.7882 351.8875L344.69446 351.8875L344.69446 348.85626Q344.0382 349.575 342.96008 349.575Q341.80383 349.575 341.11633 348.6844Q340.44446 347.77814 340.44446 346.3094L340.44446 346.23126ZM341.52258 346.35626Q341.52258 347.4344 341.9757 348.0594Q342.44446 348.6844 343.2257 348.6844Q344.19446 348.6844 344.69446 347.825L344.69446 344.71564Q344.17883 343.8875 343.24133 343.8875Q342.44446 343.8875 341.9757 344.5125Q341.52258 345.1375 341.52258 346.35626ZM351.61633 348.825Q350.99133 349.575 349.75696 349.575Q348.74133 349.575 348.21008 348.98126Q347.67883 348.3875 347.67883 347.23126L347.67883 343.10626L348.75696 343.10626L348.75696 347.2Q348.75696 348.65314 349.92883 348.65314Q351.17883 348.65314 351.58508 347.71564L351.58508 343.10626L352.67883 343.10626L352.67883 349.45L351.64758 349.45L351.61633 348.825ZM357.33508 349.575Q356.0382 349.575 355.2257 348.73126Q354.42883 347.8719 354.42883 346.45L354.42883 346.2625Q354.42883 345.3094 354.7882 344.575Q355.14758 343.825 355.7882 343.41876Q356.44446 342.9969 357.19446 342.9969Q358.42883 342.9969 359.11633 343.8094Q359.80383 344.6219 359.80383 346.1375L359.80383 346.59064L355.50696 346.59064Q355.5382 347.52814 356.05383 348.10626Q356.58508 348.6844 357.39758 348.6844Q357.96008 348.6844 358.3507 348.45Q358.75696 348.21564 359.06946 347.825L359.7257 348.34064Q358.92883 349.575 357.33508 349.575ZM357.19446 343.8875Q356.5382 343.8875 356.08508 344.3719Q355.64758 344.84064 355.55383 345.7L358.7257 345.7L358.7257 345.6219Q358.67883 344.79376 358.27258 344.34064Q357.88196 343.8875 357.19446 343.8875ZM365.27258 350.34064L359.9132 350.34064L359.9132 349.45L365.27258 349.45L365.27258 350.34064ZM366.24133 349.45L366.24133 343.95L365.24133 343.95L365.24133 343.10626L366.24133 343.10626L366.24133 342.46564Q366.24133 341.4344 366.77258 340.8875Q367.31946 340.325 368.31946 340.325Q368.69446 340.325 369.06946 340.41876L369.00696 341.3094Q368.7257 341.2469 368.42883 341.2469Q367.89758 341.2469 367.6007 341.5594Q367.31946 341.8719 367.31946 342.4344L367.31946 343.10626L368.67883 343.10626L368.67883 343.95L367.31946 343.95L367.31946 349.45L366.24133 349.45ZM373.61633 348.825Q372.99133 349.575 371.75696 349.575Q370.74133 349.575 370.21008 348.98126Q369.67883 348.3875 369.67883 347.23126L369.67883 343.10626L370.75696 343.10626L370.75696 347.2Q370.75696 348.65314 371.92883 348.65314Q373.17883 348.65314 373.58508 347.71564L373.58508 343.10626L374.67883 343.10626L374.67883 349.45L373.64758 349.45L373.61633 348.825ZM377.7257 343.10626L377.75696 343.90314Q378.49133 342.9969 379.6632 342.9969Q381.67883 342.9969 381.69446 345.2625L381.69446 349.45L380.6007 349.45L380.6007 345.2469Q380.6007 344.575 380.2882 344.2469Q379.99133 343.91876 379.33508 343.91876Q378.80383 343.91876 378.39758 344.2Q378.00696 344.48126 377.7882 344.9344L377.7882 349.45L376.71008 349.45L376.71008 343.10626L377.7257 343.10626ZM386.24133 348.6844Q386.81946 348.6844 387.25696 348.34064Q387.69446 347.98126 387.74133 347.45L388.77258 347.45Q388.74133 347.9969 388.38196 348.4969Q388.0382 348.98126 387.46008 349.27814Q386.89758 349.575 386.24133 349.575Q384.94446 349.575 384.17883 348.71564Q383.42883 347.84064 383.42883 346.34064L383.42883 346.15314Q383.42883 345.23126 383.75696 344.5125Q384.1007 343.79376 384.7257 343.40314Q385.36633 342.9969 386.24133 342.9969Q387.30383 342.9969 388.00696 343.6375Q388.7257 344.2625 388.77258 345.29376L387.74133 345.29376Q387.69446 344.66876 387.27258 344.27814Q386.8507 343.8875 386.24133 343.8875Q385.4132 343.8875 384.96008 344.48126Q384.50696 345.075 384.50696 346.2L384.50696 346.40314Q384.50696 347.4969 384.96008 348.09064Q385.4132 348.6844 386.24133 348.6844ZM391.17883 341.575L391.17883 343.10626L392.3507 343.10626L392.3507 343.95L391.17883 343.95L391.17883 347.8719Q391.17883 348.2625 391.33508 348.45Q391.49133 348.6375 391.86633 348.6375Q392.05383 348.6375 392.38196 348.575L392.38196 349.45Q391.96008 349.575 391.55383 349.575Q390.83508 349.575 390.46008 349.1375Q390.08508 348.6844 390.08508 347.8719L390.08508 343.95L388.92883 343.95L388.92883 343.10626L390.08508 343.10626L390.08508 341.575L391.17883 341.575ZM394.88196 349.45L393.80383 349.45L393.80383 343.10626L394.88196 343.10626L394.88196 349.45ZM393.71008 341.4344Q393.71008 341.16876 393.86633 340.98126Q394.0382 340.79376 394.3507 340.79376Q394.6632 340.79376 394.81946 340.98126Q394.99133 341.16876 394.99133 341.4344Q394.99133 341.6844 394.81946 341.8719Q394.6632 342.04376 394.3507 342.04376Q394.0382 342.04376 393.86633 341.8719Q393.71008 341.6844 393.71008 341.4344ZM396.4132 346.21564Q396.4132 345.29376 396.77258 344.54376Q397.14758 343.79376 397.80383 343.40314Q398.46008 342.9969 399.2882 342.9969Q400.58508 342.9969 401.38196 343.8875Q402.19446 344.77814 402.19446 346.27814L402.19446 346.35626Q402.19446 347.27814 401.83508 348.0125Q401.4757 348.7469 400.81946 349.16876Q400.1632 349.575 399.30383 349.575Q398.02258 349.575 397.21008 348.6844Q396.4132 347.77814 396.4132 346.29376L396.4132 346.21564ZM397.50696 346.35626Q397.50696 347.40314 397.99133 348.04376Q398.49133 348.6844 399.30383 348.6844Q400.13196 348.6844 400.61633 348.04376Q401.1007 347.3875 401.1007 346.21564Q401.1007 345.1844 400.6007 344.54376Q400.11633 343.8875 399.2882 343.8875Q398.49133 343.8875 397.99133 344.52814Q397.50696 345.15314 397.50696 346.35626ZM404.7257 343.10626L404.75696 343.90314Q405.49133 342.9969 406.6632 342.9969Q408.67883 342.9969 408.69446 345.2625L408.69446 349.45L407.6007 349.45L407.6007 345.2469Q407.6007 344.575 407.2882 344.2469Q406.99133 343.91876 406.33508 343.91876Q405.80383 343.91876 405.39758 344.2Q405.00696 344.48126 404.7882 344.9344L404.7882 349.45L403.71008 349.45L403.71008 343.10626L404.7257 343.10626Z" fill-rule="nonzero"/><path fill="#000000" d="M434.63034 347.7625Q434.63034 347.325 434.2866 347.09064Q433.95847 346.84064 433.13034 346.66876Q432.31784 346.4969 431.83347 346.2469Q431.3491 345.9969 431.11472 345.66876Q430.89597 345.325 430.89597 344.85626Q430.89597 344.075 431.55222 343.54376Q432.20847 342.9969 433.23972 342.9969Q434.31784 342.9969 434.9741 343.5594Q435.64597 344.10626 435.64597 344.96564L434.56784 344.96564Q434.56784 344.52814 434.17722 344.21564Q433.80222 343.8875 433.23972 343.8875Q432.64597 343.8875 432.30222 344.15314Q431.9741 344.40314 431.9741 344.8094Q431.9741 345.2 432.2866 345.40314Q432.5991 345.60626 433.4116 345.79376Q434.2241 345.96564 434.7241 346.21564Q435.2241 346.46564 435.45847 346.825Q435.70847 347.1844 435.70847 347.6844Q435.70847 348.54376 435.02097 349.0594Q434.3491 349.575 433.27097 349.575Q432.50534 349.575 431.9116 349.3094Q431.33347 349.02814 431.00534 348.54376Q430.67722 348.0594 430.67722 347.4969L431.75534 347.4969Q431.7866 348.04376 432.19284 348.3719Q432.5991 348.6844 433.27097 348.6844Q433.88034 348.6844 434.25534 348.4344Q434.63034 348.1844 434.63034 347.7625ZM438.4116 341.575L438.4116 343.10626L439.58347 343.10626L439.58347 343.95L438.4116 343.95L438.4116 347.8719Q438.4116 348.2625 438.56784 348.45Q438.7241 348.6375 439.0991 348.6375Q439.2866 348.6375 439.61472 348.575L439.61472 349.45Q439.19284 349.575 438.7866 349.575Q438.06784 349.575 437.69284 349.1375Q437.31784 348.6844 437.31784 347.8719L437.31784 343.95L436.1616 343.95L436.1616 343.10626L437.31784 343.10626L437.31784 341.575L438.4116 341.575ZM440.67722 346.23126Q440.67722 344.7625 441.36472 343.8875Q442.05222 342.9969 443.17722 342.9969Q444.2866 342.9969 444.94284 343.7469L444.94284 340.45L446.02097 340.45L446.02097 349.45L445.02097 349.45L444.9741 348.7625Q444.31784 349.575 443.1616 349.575Q442.06784 349.575 441.36472 348.66876Q440.67722 347.7625 440.67722 346.3094L440.67722 346.23126ZM441.75534 346.35626Q441.75534 347.4344 442.19284 348.04376Q442.64597 348.65314 443.42722 348.65314Q444.45847 348.65314 444.94284 347.71564L444.94284 344.8094Q444.45847 343.91876 443.44284 343.91876Q442.64597 343.91876 442.19284 344.52814Q441.75534 345.1375 441.75534 346.35626ZM447.95847 348.8875Q447.95847 348.60626 448.11472 348.41876Q448.2866 348.23126 448.61472 348.23126Q448.95847 348.23126 449.13034 348.41876Q449.30222 348.60626 449.30222 348.8875Q449.30222 349.15314 449.13034 349.34064Q448.95847 349.5125 448.61472 349.5125Q448.2866 349.5125 448.11472 349.34064Q447.95847 349.15314 447.95847 348.8875ZM447.95847 343.8875Q447.95847 343.60626 448.11472 343.41876Q448.2866 343.23126 448.61472 343.23126Q448.95847 343.23126 449.13034 343.41876Q449.30222 343.60626 449.30222 343.8875Q449.30222 344.15314 449.13034 344.34064Q448.95847 344.5125 448.61472 344.5125Q448.2866 344.5125 448.11472 344.34064Q447.95847 344.15314 447.95847 343.8875ZM450.95847 348.8875Q450.95847 348.60626 451.11472 348.41876Q451.2866 348.23126 451.61472 348.23126Q451.95847 348.23126 452.13034 348.41876Q452.30222 348.60626 452.30222 348.8875Q452.30222 349.15314 452.13034 349.34064Q451.95847 349.5125 451.61472 349.5125Q451.2866 349.5125 451.11472 349.34064Q450.95847 349.15314 450.95847 348.8875ZM450.95847 343.8875Q450.95847 343.60626 451.11472 343.41876Q451.2866 343.23126 451.61472 343.23126Q451.95847 343.23126 452.13034 343.41876Q452.30222 343.60626 452.30222 343.8875Q452.30222 344.15314 452.13034 344.34064Q451.95847 344.5125 451.61472 344.5125Q451.2866 344.5125 451.11472 344.34064Q450.95847 344.15314 450.95847 343.8875ZM454.4741 349.45L454.4741 343.95L453.4741 343.95L453.4741 343.10626L454.4741 343.10626L454.4741 342.46564Q454.4741 341.4344 455.00534 340.8875Q455.55222 340.325 456.55222 340.325Q456.92722 340.325 457.30222 340.41876L457.23972 341.3094Q456.95847 341.2469 456.6616 341.2469Q456.13034 341.2469 455.83347 341.5594Q455.55222 341.8719 455.55222 342.4344L455.55222 343.10626L456.9116 343.10626L456.9116 343.95L455.55222 343.95L455.55222 349.45L454.4741 349.45ZM461.8491 348.825Q461.2241 349.575 459.98972 349.575Q458.9741 349.575 458.44284 348.98126Q457.9116 348.3875 457.9116 347.23126L457.9116 343.10626L458.98972 343.10626L458.98972 347.2Q458.98972 348.65314 460.1616 348.65314Q461.4116 348.65314 461.81784 347.71564L461.81784 343.10626L462.9116 343.10626L462.9116 349.45L461.88034 349.45L461.8491 348.825ZM465.95847 343.10626L465.98972 343.90314Q466.7241 342.9969 467.89597 342.9969Q469.9116 342.9969 469.92722 345.2625L469.92722 349.45L468.83347 349.45L468.83347 345.2469Q468.83347 344.575 468.52097 344.2469Q468.2241 343.91876 467.56784 343.91876Q467.0366 343.91876 466.63034 344.2Q466.23972 344.48126 466.02097 344.9344L466.02097 349.45L464.94284 349.45L464.94284 343.10626L465.95847 343.10626ZM474.4741 348.6844Q475.05222 348.6844 475.48972 348.34064Q475.92722 347.98126 475.9741 347.45L477.00534 347.45Q476.9741 347.9969 476.61472 348.4969Q476.27097 348.98126 475.69284 349.27814Q475.13034 349.575 474.4741 349.575Q473.17722 349.575 472.4116 348.71564Q471.6616 347.84064 471.6616 346.34064L471.6616 346.15314Q471.6616 345.23126 471.98972 344.5125Q472.33347 343.79376 472.95847 343.40314Q473.5991 342.9969 474.4741 342.9969Q475.5366 342.9969 476.23972 343.6375Q476.95847 344.2625 477.00534 345.29376L475.9741 345.29376Q475.92722 344.66876 475.50534 344.27814Q475.08347 343.8875 474.4741 343.8875Q473.64597 343.8875 473.19284 344.48126Q472.73972 345.075 472.73972 346.2L472.73972 346.40314Q472.73972 347.4969 473.19284 348.09064Q473.64597 348.6844 474.4741 348.6844ZM479.4116 341.575L479.4116 343.10626L480.58347 343.10626L480.58347 343.95L479.4116 343.95L479.4116 347.8719Q479.4116 348.2625 479.56784 348.45Q479.7241 348.6375 480.0991 348.6375Q480.2866 348.6375 480.61472 348.575L480.61472 349.45Q480.19284 349.575 479.7866 349.575Q479.06784 349.575 478.69284 349.1375Q478.31784 348.6844 478.31784 347.8719L478.31784 343.95L477.1616 343.95L477.1616 343.10626L478.31784 343.10626L478.31784 341.575L479.4116 341.575ZM483.11472 349.45L482.0366 349.45L482.0366 343.10626L483.11472 343.10626L483.11472 349.45ZM481.94284 341.4344Q481.94284 341.16876 482.0991 340.98126Q482.27097 340.79376 482.58347 340.79376Q482.89597 340.79376 483.05222 340.98126Q483.2241 341.16876 483.2241 341.4344Q483.2241 341.6844 483.05222 341.8719Q482.89597 342.04376 482.58347 342.04376Q482.27097 342.04376 482.0991 341.8719Q481.94284 341.6844 481.94284 341.4344ZM484.64597 346.21564Q484.64597 345.29376 485.00534 344.54376Q485.38034 343.79376 486.0366 343.40314Q486.69284 342.9969 487.52097 342.9969Q488.81784 342.9969 489.61472 343.8875Q490.42722 344.77814 490.42722 346.27814L490.42722 346.35626Q490.42722 347.27814 490.06784 348.0125Q489.70847 348.7469 489.05222 349.16876Q488.39597 349.575 487.5366 349.575Q486.25534 349.575 485.44284 348.6844Q484.64597 347.77814 484.64597 346.29376L484.64597 346.21564ZM485.73972 346.35626Q485.73972 347.40314 486.2241 348.04376Q486.7241 348.6844 487.5366 348.6844Q488.36472 348.6844 488.8491 348.04376Q489.33347 347.3875 489.33347 346.21564Q489.33347 345.1844 488.83347 344.54376Q488.3491 343.8875 487.52097 343.8875Q486.7241 343.8875 486.2241 344.52814Q485.73972 345.15314 485.73972 346.35626ZM492.95847 343.10626L492.98972 343.90314Q493.7241 342.9969 494.89597 342.9969Q496.9116 342.9969 496.92722 345.2625L496.92722 349.45L495.83347 349.45L495.83347 345.2469Q495.83347 344.575 495.52097 344.2469Q495.2241 343.91876 494.56784 343.91876Q494.0366 343.91876 493.63034 344.2Q493.23972 344.48126 493.02097 344.9344L493.02097 349.45L491.94284 349.45L491.94284 343.10626L492.95847 343.10626Z" fill-rule="nonzero"/><path stroke="#1c4587" stroke-width="4.0" stroke-linecap="butt" d="M544.45 59.916668L556.45 59.916668" fill-rule="nonzero"/><path fill="#666666" d="M567.2625 60.994793L564.65314 60.994793L564.65314 60.182293L567.2625 60.182293L567.2625 60.994793ZM574.3719 60.260418Q574.3719 61.401043 573.98126 62.260418Q573.60626 63.119793 572.8875 63.572918Q572.1844 64.02605 571.23126 64.02605Q570.3094 64.02605 569.59064 63.572918Q568.8875 63.119793 568.48126 62.276043Q568.09064 61.432293 568.09064 60.322918L568.09064 59.760418Q568.09064 58.635418 568.48126 57.776043Q568.8719 56.901043 569.59064 56.447918Q570.3094 55.994793 571.23126 55.994793Q572.16876 55.994793 572.8875 56.447918Q573.60626 56.901043 573.98126 57.760418Q574.3719 58.619793 574.3719 59.760418L574.3719 60.260418ZM573.34064 59.760418Q573.34064 58.369793 572.77814 57.619793Q572.23126 56.869793 571.23126 56.869793Q570.2469 56.869793 569.6844 57.619793Q569.1219 58.369793 569.10626 59.682293L569.10626 60.260418Q569.10626 61.604168 569.66876 62.385418Q570.2469 63.151043 571.23126 63.151043Q572.23126 63.151043 572.77814 62.432293Q573.325 61.697918 573.34064 60.338543L573.34064 59.760418ZM580.9969 60.588543Q580.9969 62.322918 580.40314 63.182293Q579.8094 64.02605 578.54376 64.02605Q577.29376 64.02605 576.6844 63.197918Q576.09064 62.369793 576.075 60.713543L576.075 59.385418Q576.075 57.666668 576.66876 56.838543Q577.2625 55.994793 578.52814 55.994793Q579.79376 55.994793 580.3875 56.807293Q580.98126 57.604168 580.9969 59.291668L580.9969 60.588543ZM580.0125 59.229168Q580.0125 57.963543 579.65314 57.385418Q579.29376 56.807293 578.52814 56.807293Q577.77814 56.807293 577.41876 57.385418Q577.075 57.947918 577.0594 59.151043L577.0594 60.729168Q577.0594 62.010418 577.41876 62.619793Q577.79376 63.213543 578.54376 63.213543Q579.27814 63.213543 579.6375 62.651043Q579.9969 62.072918 580.0125 60.854168L580.0125 59.229168Z" fill-rule="nonzero"/><path stroke="#6d9eeb" stroke-width="4.0" stroke-linecap="butt" d="M544.45 83.916664L556.45 83.916664" fill-rule="nonzero"/><path fill="#666666" d="M567.2625 84.99479L564.65314 84.99479L564.65314 84.18229L567.2625 84.18229L567.2625 84.99479ZM574.3719 84.260414Q574.3719 85.40104 573.98126 86.260414Q573.60626 87.11979 572.8875 87.572914Q572.1844 88.02604 571.23126 88.02604Q570.3094 88.02604 569.59064 87.572914Q568.8875 87.11979 568.48126 86.27604Q568.09064 85.43229 568.09064 84.322914L568.09064 83.760414Q568.09064 82.635414 568.48126 81.77604Q568.8719 80.90104 569.59064 80.447914Q570.3094 79.99479 571.23126 79.99479Q572.16876 79.99479 572.8875 80.447914Q573.60626 80.90104 573.98126 81.760414Q574.3719 82.61979 574.3719 83.760414L574.3719 84.260414ZM573.34064 83.760414Q573.34064 82.36979 572.77814 81.61979Q572.23126 80.86979 571.23126 80.86979Q570.2469 80.86979 569.6844 81.61979Q569.1219 82.36979 569.10626 83.68229L569.10626 84.260414Q569.10626 85.604164 569.66876 86.385414Q570.2469 87.15104 571.23126 87.15104Q572.23126 87.15104 572.77814 86.43229Q573.325 85.697914 573.34064 84.33854L573.34064 83.760414ZM581.23126 87.916664L576.10626 87.916664L576.10626 87.197914L578.8094 84.197914Q579.40314 83.510414 579.6375 83.08854Q579.8719 82.65104 579.8719 82.197914Q579.8719 81.58854 579.4969 81.197914Q579.1219 80.80729 578.5125 80.80729Q577.7625 80.80729 577.35626 81.229164Q576.95 81.65104 576.95 82.40104L575.95 82.40104Q575.95 81.322914 576.6375 80.666664Q577.34064 79.99479 578.5125 79.99479Q579.59064 79.99479 580.23126 80.572914Q580.8719 81.135414 580.8719 82.08854Q580.8719 83.24479 579.3875 84.83854L577.29376 87.104164L581.23126 87.104164L581.23126 87.916664Z" fill-rule="nonzero"/><path fill="#000000" d="M29.45625 31.4875Q29.20625 33.51875 27.940624 34.628124Q26.690624 35.721874 24.596874 35.721874Q22.33125 35.721874 20.95625 34.096874Q19.596874 32.471874 19.596874 29.753124L19.596874 28.51875Q19.596874 26.7375 20.2375 25.39375Q20.878124 24.034374 22.034374 23.315624Q23.20625 22.58125 24.753124 22.58125Q26.784374 22.58125 28.01875 23.721874Q29.253124 24.846874 29.45625 26.8625L27.753124 26.8625Q27.534374 25.33125 26.8 24.659374Q26.065624 23.971874 24.753124 23.971874Q23.128124 23.971874 22.20625 25.175Q21.3 26.3625 21.3 28.565624L21.3 29.8Q21.3 31.878124 22.159374 33.1125Q23.034374 34.346874 24.596874 34.346874Q26.003124 34.346874 26.753124 33.70625Q27.503124 33.065624 27.753124 31.4875L29.45625 31.4875ZM33.55 35.55L31.925 35.55L31.925 22.05L33.55 22.05L33.55 35.55ZM41.659374 35.55Q41.51875 35.26875 41.425 34.55Q40.284374 35.721874 38.721874 35.721874Q37.315624 35.721874 36.409374 34.925Q35.503124 34.128124 35.503124 32.909374Q35.503124 31.425 36.628124 30.6125Q37.76875 29.784374 39.815624 29.784374L41.39375 29.784374L41.39375 29.034374Q41.39375 28.190624 40.878124 27.690624Q40.378124 27.175 39.378124 27.175Q38.51875 27.175 37.925 27.6125Q37.33125 28.05 37.33125 28.675L35.70625 28.675Q35.70625 27.971874 36.20625 27.315624Q36.70625 26.64375 37.565624 26.253124Q38.440624 25.8625 39.4875 25.8625Q41.128124 25.8625 42.05 26.690624Q42.9875 27.503124 43.01875 28.95625L43.01875 33.33125Q43.01875 34.628124 43.3625 35.409374L43.3625 35.55L41.659374 35.55ZM38.95625 34.315624Q39.721874 34.315624 40.409374 33.925Q41.096874 33.51875 41.39375 32.89375L41.39375 30.940624L40.128124 30.940624Q37.128124 30.940624 37.128124 32.690624Q37.128124 33.45625 37.64375 33.89375Q38.159374 34.315624 38.95625 34.315624ZM47.315624 26.034374L47.378124 27.2375Q48.45625 25.8625 50.221874 25.8625Q53.2375 25.8625 53.253124 29.26875L53.253124 35.55L51.628124 35.55L51.628124 29.253124Q51.628124 28.221874 51.159374 27.7375Q50.70625 27.2375 49.721874 27.2375Q48.940624 27.2375 48.33125 27.659374Q47.7375 28.08125 47.409374 28.76875L47.409374 35.55L45.784374 35.55L45.784374 26.034374L47.315624 26.034374ZM55.39375 30.721874Q55.39375 28.4875 56.425 27.175Q57.45625 25.8625 59.14375 25.8625Q60.89375 25.8625 61.8625 27.096874L61.940624 26.034374L63.425 26.034374L63.425 35.315624Q63.425 37.175 62.33125 38.2375Q61.2375 39.3 59.39375 39.3Q58.3625 39.3 57.378124 38.846874Q56.39375 38.409374 55.878124 37.64375L56.721874 36.675Q57.76875 37.971874 59.284374 37.971874Q60.471874 37.971874 61.128124 37.3Q61.8 36.628124 61.8 35.425L61.8 34.596874Q60.815624 35.721874 59.128124 35.721874Q57.45625 35.721874 56.425 34.378124Q55.39375 33.034374 55.39375 30.721874ZM57.034374 30.89375Q57.034374 32.503124 57.690624 33.425Q58.346874 34.346874 59.534374 34.346874Q61.065624 34.346874 61.8 32.940624L61.8 28.6125Q61.05 27.2375 59.55 27.2375Q58.3625 27.2375 57.690624 28.175Q57.034374 29.096874 57.034374 30.89375ZM77.37813 26.096874Q77.37813 27.05 76.8625 27.8Q76.3625 28.55 75.50313 28.971874Q76.50313 29.39375 77.08125 30.221874Q77.675 31.05 77.675 32.096874Q77.675 33.753124 76.55 34.7375Q75.425 35.721874 73.59688 35.721874Q71.75313 35.721874 70.64375 34.7375Q69.53438 33.753124 69.53438 32.096874Q69.53438 31.065624 70.09688 30.2375Q70.675 29.39375 71.675 28.95625Q70.81563 28.534374 70.31563 27.784374Q69.83125 27.034374 69.83125 26.096874Q69.83125 24.471874 70.8625 23.534374Q71.90938 22.58125 73.59688 22.58125Q75.28438 22.58125 76.33125 23.534374Q77.37813 24.471874 77.37813 26.096874ZM76.05 32.065624Q76.05 30.9875 75.3625 30.315624Q74.69063 29.628124 73.58125 29.628124Q72.4875 29.628124 71.81563 30.3Q71.15938 30.971874 71.15938 32.065624Q71.15938 33.14375 71.8 33.76875Q72.45625 34.39375 73.59688 34.39375Q74.75313 34.39375 75.39375 33.76875Q76.05 33.14375 76.05 32.065624ZM73.59688 23.909374Q72.64375 23.909374 72.05 24.503124Q71.45625 25.096874 71.45625 26.1125Q71.45625 27.096874 72.03438 27.70625Q72.62813 28.3 73.59688 28.3Q74.58125 28.3 75.15938 27.70625Q75.75313 27.096874 75.75313 26.128124Q75.75313 25.14375 75.14375 24.534374Q74.53438 23.909374 73.59688 23.909374Z" fill-rule="nonzero"/></svg>